Coordinates
version=1
nRows=7
nColumns=40
inDegrees=yes
endheader
time	pelvis_tilt	pelvis_list	pelvis_rotation	pelvis_tx	pelvis_ty	pelvis_tz	hip_flexion_r	hip_adduction_r	hip_rotation_r	knee_angle_r	knee_angle_r_beta	ankle_angle_r	subtalar_angle_r	mtp_angle_r	hip_flexion_l	hip_adduction_l	hip_rotation_l	knee_angle_l	knee_angle_l_beta	ankle_angle_l	subtalar_angle_l	mtp_angle_l	lumbar_extension	lumbar_bending	lumbar_rotation	arm_flex_r	arm_add_r	arm_rot_r	elbow_flex_r	pro_sup_r	wrist_flex_r	wrist_dev_r	arm_flex_l	arm_add_l	arm_rot_l	elbow_flex_l	pro_sup_l	wrist_flex_l	wrist_dev_l
      0.23000000	    -15.96552360	     -2.41002984	    -10.04532812	      1.00020639	      0.98278308	     -0.34361281	     42.80572915	     10.25794996	     -3.33113748	     37.54162267	      0.65522492	      0.30824344	      0.00000000	      0.00000000	     14.73859819	     -3.26374837	     -2.14895457	     92.35795077	      1.61195033	    -12.27969280	      0.00000000	      0.00000000	      4.84197989	      8.39201596	      1.57381548	    -36.87765034	    -24.51092697	     -8.32939195	    108.39905869	     38.65662455	      0.00000000	      0.00000000	    -30.36030011	    -15.18335483	      1.40165730	    116.16434032	     39.44173355	      0.00000000	      0.00000000
      0.24000000	    -14.94933952	     -3.02558994	    -10.01517973	      0.99559948	      0.97757183	     -0.34436679	     41.58760510	     10.83213959	     -2.38270533	     41.63826964	      0.72672490	      3.11096433	      0.00000000	      0.00000000	     17.41974084	     -4.36831662	     -1.50063325	     96.93322209	      1.69180388	    -11.74119909	      0.00000000	      0.00000000	      2.59149096	      9.14687358	      2.90639503	    -33.94143185	    -24.78519088	     -8.19669492	    107.19658498	     39.52147516	      0.00000000	      0.00000000	    -29.24094904	    -14.86556836	      1.73998115	    112.72684059	     40.28029432	      0.00000000	      0.00000000
      0.25000000	    -14.26562958	     -3.18704242	    -10.05297374	      0.99168480	      0.97245035	     -0.34476143	     40.08352614	     10.99216281	     -1.74028173	     44.63471637	      0.77902276	      5.54086017	      0.00000000	      0.00000000	     20.52938388	     -5.04996619	     -0.96720648	    100.82742826	      1.75977060	    -10.94411264	      0.00000000	      0.00000000	      0.65305627	      9.36388620	      4.40967806	    -31.45646783	    -24.90885484	     -7.78435393	    105.83876826	     39.99559840	      0.00000000	      0.00000000	    -28.92326059	    -14.57144652	      2.35934338	    109.48581117	     40.73919284	      0.00000000	      0.00000000
      0.26000000	    -14.35772860	     -2.68260435	     -9.32720748	      0.98960711	      0.96713920	     -0.34561912	     39.25873041	     10.40837775	     -0.66266448	     48.33611887	      0.84362442	     11.59238423	      0.00000000	      0.00000000	     24.36458830	     -4.82305383	     -0.03389534	    103.67336585	      1.80944158	     -7.47252176	      0.00000000	      0.00000000	      1.00914914	      8.94503855	      4.76437797	    -28.30113085	    -25.34706723	     -5.94037107	    102.92842347	     42.66556531	      0.00000000	      0.00000000	    -28.31376613	    -14.62749060	      3.65693719	    104.18960106	     43.63378607	      0.00000000	      0.00000000
      0.27000000	    -13.94509298	     -2.55887245	     -9.06014330	      0.98700844	      0.96424751	     -0.34574773	     36.79536255	     10.10179427	     -0.22135170	     49.31286022	      0.86067177	     12.53441143	      0.00000000	      0.00000000	     27.95835350	     -5.09708352	      0.54361834	    105.81531614	      1.84682567	     -7.12855535	      0.00000000	      0.00000000	     -0.15977651	      8.69975373	      6.16255285	    -26.10566675	    -25.19465127	     -5.80139102	    102.24667853	     42.91968161	      0.00000000	      0.00000000	    -28.59825960	    -14.44399916	      4.15897784	    102.50235442	     43.86643244	      0.00000000	      0.00000000
      0.28000000	    -14.15084536	     -2.68122359	     -8.07955386	      0.98489337	      0.96276755	     -0.34604032	     34.58848761	     10.09758336	      0.77198583	     49.93252001	      0.87148688	     16.57723442	      0.00000000	      0.00000000	     32.10329371	     -5.27098357	      2.09487794	    106.96518707	      1.86689470	     -5.23121065	      0.00000000	      0.00000000	      0.18095484	      8.58753625	      6.16626706	    -22.78060660	    -25.46965714	     -4.59788281	     99.61573374	     44.28259583	      0.00000000	      0.00000000	    -28.34128099	    -14.59244067	      5.48362466	     98.28952932	     45.04791635	      0.00000000	      0.00000000
      0.29000000	    -14.13420061	     -2.42693449	     -7.77788185	      0.98284438	      0.96310963	     -0.34683057	     32.08624978	      9.38935092	      0.60973789	     49.92177207	      0.87129929	     16.81712247	      0.00000000	      0.00000000	     35.94719535	     -5.16949845	      2.27614313	    107.21883621	      1.87132171	     -4.82692662	      0.00000000	      0.00000000	     -0.38275782	      8.37223158	      7.71707052	    -21.08685612	    -25.43609148	     -4.37577219	     99.68134298	     44.57014064	      0.00000000	      0.00000000	    -28.92488399	    -14.87700521	      5.55839599	     97.75391088	     45.25712368	      0.00000000	      0.00000000
